<svg width="1440" height="900" viewBox="0 0 1440 900" fill="none" xmlns="http://www.w3.org/2000/svg">
  <rect width="1440" height="900" fill="#F4EEE4"/>
  <rect x="40" y="40" width="1360" height="120" rx="28" fill="#FFFFFF"/>
  <rect x="40" y="190" width="1360" height="390" rx="28" fill="#FFFFFF"/>
  <rect x="40" y="610" width="1360" height="250" rx="28" fill="#FFFFFF"/>
  <text x="80" y="110" fill="#143B31" font-family="Georgia" font-size="38">Run an ad hoc churn assessment</text>
  <text x="80" y="260" fill="#143B31" font-family="Georgia" font-size="34">Prediction result</text>
  <text x="80" y="320" fill="#A0472D" font-family="Arial" font-size="28">Likely to Churn</text>
  <text x="80" y="370" fill="#4F4C45" font-family="Arial" font-size="22">Churn probability: 72.4%</text>
  <rect x="1025" y="235" width="180" height="48" rx="24" fill="#FDE7E7"/>
  <text x="1087" y="265" fill="#C13A3A" font-family="Arial" font-size="18">High</text>
  <rect x="80" y="430" width="520" height="100" rx="24" fill="#FBF8F2"/>
  <text x="110" y="472" fill="#7A786F" font-family="Arial" font-size="14" letter-spacing="4">SUGGESTED RETENTION ACTION</text>
  <text x="110" y="510" fill="#4F4C45" font-family="Arial" font-size="18">Offer a premium review and same-week agent follow-up.</text>
  <text x="80" y="680" fill="#143B31" font-family="Georgia" font-size="34">Top risk factors</text>
  <rect x="80" y="720" width="380" height="96" rx="22" fill="#FFFFFF" stroke="#E8E0D2"/>
  <rect x="490" y="720" width="380" height="96" rx="22" fill="#FFFFFF" stroke="#E8E0D2"/>
  <rect x="900" y="720" width="380" height="96" rx="22" fill="#FFFFFF" stroke="#E8E0D2"/>
  <text x="108" y="765" fill="#143B31" font-family="Arial" font-size="20">Payment delays</text>
  <text x="518" y="765" fill="#143B31" font-family="Arial" font-size="20">Missed payments</text>
  <text x="928" y="765" fill="#143B31" font-family="Arial" font-size="20">Affordability pressure</text>
</svg>
