<svg width="1440" height="900" viewBox="0 0 1440 900" fill="none" xmlns="http://www.w3.org/2000/svg">
  <rect width="1440" height="900" fill="#F4EEE4"/>
  <rect x="40" y="40" width="1360" height="110" rx="28" fill="#FFFFFF"/>
  <rect x="40" y="180" width="1360" height="120" rx="28" fill="#FFFFFF"/>
  <rect x="40" y="330" width="1360" height="530" rx="28" fill="#FFFFFF"/>
  <rect x="80" y="215" width="420" height="52" rx="18" fill="#FBF8F2" stroke="#D9D2C8"/>
  <rect x="540" y="215" width="220" height="52" rx="18" fill="#FBF8F2" stroke="#D9D2C8"/>
  <rect x="790" y="215" width="220" height="52" rx="18" fill="#FBF8F2" stroke="#D9D2C8"/>
  <rect x="1040" y="215" width="220" height="52" rx="18" fill="#FBF8F2" stroke="#D9D2C8"/>
  <text x="80" y="105" fill="#143B31" font-family="Georgia" font-size="38">Search, filter, and act on the portfolio</text>
  <text x="88" y="247" fill="#7D7B76" font-family="Arial" font-size="16">Search by ID, region, or plan</text>
  <text x="88" y="390" fill="#7A786F" font-family="Arial" font-size="14" letter-spacing="4">POLICYHOLDER</text>
  <text x="345" y="390" fill="#7A786F" font-family="Arial" font-size="14" letter-spacing="4">REGION</text>
  <text x="565" y="390" fill="#7A786F" font-family="Arial" font-size="14" letter-spacing="4">PLAN</text>
  <text x="760" y="390" fill="#7A786F" font-family="Arial" font-size="14" letter-spacing="4">PREMIUM</text>
  <text x="955" y="390" fill="#7A786F" font-family="Arial" font-size="14" letter-spacing="4">PROBABILITY</text>
  <text x="1155" y="390" fill="#7A786F" font-family="Arial" font-size="14" letter-spacing="4">RISK</text>
  <text x="88" y="460" fill="#143B31" font-family="Arial" font-size="18">PH104998</text>
  <text x="345" y="460" fill="#4F4C45" font-family="Arial" font-size="18">Harare</text>
  <text x="565" y="460" fill="#4F4C45" font-family="Arial" font-size="18">Family</text>
  <text x="760" y="460" fill="#4F4C45" font-family="Arial" font-size="18">$12.50</text>
  <text x="955" y="460" fill="#4F4C45" font-family="Arial" font-size="18">32.2%</text>
  <rect x="1140" y="432" width="90" height="34" rx="17" fill="#E7F6EE"/>
  <text x="1167" y="454" fill="#2F8F6B" font-family="Arial" font-size="14">Low</text>
</svg>
